<svg width="352" height="352" viewBox="0 0 352 352" fill="none" xmlns="http://www.w3.org/2000/svg">
<path fill-rule="evenodd" clip-rule="evenodd" d="M0 176C0 78.798 78.798 0 176 0C273.202 0 352 78.798 352 176C352 273.202 273.202 352 176 352C78.798 352 0 273.202 0 176Z" fill="url(#paint0_linear_4_5)"/>
<path fill-rule="evenodd" clip-rule="evenodd" d="M252.131 104.487C237.933 98.0458 222.754 93.3731 206.885 90.7209C204.936 94.1312 202.658 98.7279 201.089 102.366C184.22 99.9151 167.506 99.9151 150.945 102.366C149.377 98.7279 147.048 94.1312 145.081 90.7209C129.196 93.3731 113.998 98.0715 99.8017 104.538C71.1669 146.47 63.4071 187.393 67.287 227.709C86.2789 241.476 104.683 249.811 122.778 255.294C127.244 249.332 131.229 242.991 134.663 236.297C128.124 233.897 121.865 230.917 115.946 227.482C117.518 226.345 119.051 225.182 120.535 223.971C156.621 240.314 195.83 240.314 231.484 223.971C232.984 225.182 234.52 226.345 236.07 227.482C230.138 230.942 223.859 233.923 217.321 236.323C220.755 242.991 224.721 249.332 229.206 255.294C247.318 249.837 265.741 241.476 284.733 227.709C289.286 180.976 276.953 140.433 252.131 104.487ZM139.579 202.928C128.747 202.928 119.862 193.102 119.862 181.179C119.862 169.231 128.555 159.404 139.579 159.404C150.601 159.404 159.484 169.205 159.295 181.179C159.312 193.102 150.601 202.928 139.579 202.928ZM212.438 202.928C201.607 202.928 192.725 193.102 192.725 181.179C192.725 169.231 201.419 159.404 212.438 159.404C223.462 159.404 232.346 169.205 232.155 181.179C232.155 193.102 223.462 202.928 212.438 202.928Z" fill="white"/>
<defs>
<linearGradient id="paint0_linear_4_5" x1="176" y1="0" x2="176" y2="352" gradientUnits="userSpaceOnUse">
<stop/>
<stop offset="0.9999"/>
<stop offset="1" stop-color="#202226"/>
</linearGradient>
</defs>
</svg>
